<svg xmlns="http://www.w3.org/2000/svg" viewBox="0 0 45.35 53.29"><defs><style>.cls-1{fill:#fff;}</style></defs><title>资源 2xxxhdpi</title><g id="图层_2" data-name="图层 2"><g id="图层_1-2" data-name="图层 1"><g id="_编组_" data-name="&lt;编组&gt;"><g id="_编组_2" data-name="&lt;编组&gt;"><path id="_复合路径_" data-name="&lt;复合路径&gt;" class="cls-1" d="M5.59,47.79c0,1.5-1,2.35-2.72,2.35H1v3H0V45.42H2.87C4.62,45.42,5.59,46.41,5.59,47.79Zm-1,0a1.5,1.5,0,0,0-1.69-1.54H1v3.05H2.87C4.07,49.31,4.56,48.68,4.56,47.8Z"/><path id="_复合路径_2" data-name="&lt;复合路径&gt;" class="cls-1" d="M9.75,53.29c-1.84,0-3.14-1.42-3.14-3.74v-.49c0-2.33,1.29-3.74,3.13-3.74s3.12,1.41,3.12,3.74v.49C12.86,51.87,11.64,53.29,9.75,53.29Zm0-7.11c-1.27,0-2.1,1-2.1,2.87v.5c0,1.86.84,2.87,2.11,2.87s2.09-1,2.09-2.87v-.5C11.84,47.2,11.06,46.18,9.74,46.18Z"/><path id="_复合路径_3" data-name="&lt;复合路径&gt;" class="cls-1" d="M22.94,45.42l-1.87,7.76h-.95l-1.59-5.66-.12-.58-.12.58-1.65,5.66H15.7l-1.88-7.76h1l1.22,5.32.15,1,.22-.91L18,45.42h.87l1.49,5.42.22.93.16-1,1.19-5.31Z"/><path id="_复合路径_4" data-name="&lt;复合路径&gt;" class="cls-1" d="M29,52.35v.83H24.07V45.42H29v.84H25.11v2.5h3.35v.83H25.11v2.76Z"/><path id="_复合路径_5" data-name="&lt;复合路径&gt;" class="cls-1" d="M35.91,53.12v.06H34.8L33.11,50h-1.8v3.14h-1V45.42h2.57c1.75,0,2.72.82,2.72,2.33a2.15,2.15,0,0,1-1.48,2.07Zm-3-3.91a1.46,1.46,0,0,0,1.66-1.46c0-.9-.51-1.49-1.69-1.49H31.31v3Z"/><path id="_复合路径_6" data-name="&lt;复合路径&gt;" class="cls-1" d="M44.09,45.42H45.3l-2.45,3.84,2.5,3.92H44.13l-1.9-3-1.91,3H39.1l2.51-3.92-2.45-3.84h1.21l1.86,3Z"/></g><g id="_编组_3" data-name="&lt;编组&gt;"><g id="_编组_4" data-name="&lt;编组&gt;"><circle class="cls-1" cx="9.62" cy="2.72" r="0.67"/></g><g id="_编组_5" data-name="&lt;编组&gt;"><circle class="cls-1" cx="13.45" cy="0.67" r="0.67"/></g><g id="_编组_6" data-name="&lt;编组&gt;"><circle class="cls-1" cx="13.36" cy="9" r="0.67"/></g><g id="_编组_7" data-name="&lt;编组&gt;"><circle class="cls-1" cx="17.09" cy="11.35" r="0.67"/></g><g id="_编组_8" data-name="&lt;编组&gt;"><circle class="cls-1" cx="24.56" cy="15.66" r="0.67"/></g><g id="_编组_9" data-name="&lt;编组&gt;"><circle class="cls-1" cx="17.09" cy="19.94" r="0.67"/></g><g id="_编组_10" data-name="&lt;编组&gt;"><circle class="cls-1" cx="17.09" cy="24.01" r="0.67"/></g><g id="_编组_11" data-name="&lt;编组&gt;"><circle class="cls-1" cx="17.09" cy="28.59" r="0.67"/></g><g id="_编组_12" data-name="&lt;编组&gt;"><circle class="cls-1" cx="17.09" cy="37.2" r="0.67"/></g><g id="_编组_13" data-name="&lt;编组&gt;"><circle class="cls-1" cx="13.36" cy="39.17" r="0.67"/></g><g id="_编组_14" data-name="&lt;编组&gt;"><circle class="cls-1" cx="9.62" cy="37.2" r="0.67"/></g><g id="_编组_15" data-name="&lt;编组&gt;"><circle class="cls-1" cx="28.29" cy="13.5" r="0.67"/></g><g id="_编组_16" data-name="&lt;编组&gt;"><circle class="cls-1" cx="35.76" cy="13.5" r="0.67"/></g><g id="_编组_17" data-name="&lt;编组&gt;"><circle class="cls-1" cx="35.76" cy="17.81" r="0.67"/></g></g><path id="_复合路径_7" data-name="&lt;复合路径&gt;" class="cls-1" d="M17.33,25.12v2.36a.93.93,0,0,0-.24-.05,1,1,0,0,0-.24.05V25.12a2,2,0,0,0,.24,0A1.72,1.72,0,0,0,17.33,25.12ZM23.47,16,18,19.19a1.1,1.1,0,0,1,.22.43l5.53-3.19A1.14,1.14,0,0,1,23.47,16ZM13.36,10.16a.93.93,0,0,1-.24-.05v28a.93.93,0,0,1,.24,0,1,1,0,0,1,.24,0v-28A1,1,0,0,1,13.36,10.16Zm13.85,3.69-1.8,1a1.24,1.24,0,0,1,.24.42l1.79-1A1.08,1.08,0,0,1,27.21,13.85ZM17.09,21.1a2,2,0,0,1-.24-.05V22.9a1,1,0,0,1,.24,0,.93.93,0,0,1,.24,0V21.05A1.69,1.69,0,0,1,17.09,21.1Zm.85-9,5.53,3.19a1.1,1.1,0,0,1,.24-.42l-5.53-3.2A1.14,1.14,0,0,1,17.94,12.12ZM9.62,36a1.84,1.84,0,0,1,.25.05V3.83a1,1,0,0,1-.25,0,1,1,0,0,1-.24,0V36.09A2,2,0,0,1,9.62,36ZM27.44,12.73,10.72,3a1.25,1.25,0,0,1-.22.43l16.71,9.69A1.08,1.08,0,0,1,27.44,12.73ZM17.09,18.78a.93.93,0,0,1,.24,0V12.45a.93.93,0,0,1-.24.05,1,1,0,0,1-.24-.05v6.38A1,1,0,0,1,17.09,18.78Zm-.85-8.2L14.39,9.51a1.26,1.26,0,0,1-.31.38L16,11A1.08,1.08,0,0,1,16.24,10.58Zm-.24,27-1.68,1a1.21,1.21,0,0,1,.17.46L16.23,38A1.08,1.08,0,0,1,16,37.53Zm-3.6,1-1.68-1a1.22,1.22,0,0,1-.24.43L12.23,39A1.11,1.11,0,0,1,12.4,38.56Zm22.27-20.4L17.94,27.82a1.1,1.1,0,0,1,.24.42l16.73-9.66A1.1,1.1,0,0,1,34.67,18.16Zm-24-15.75,1.81-1.07a1.06,1.06,0,0,1-.19-.45L10.49,2A1.12,1.12,0,0,1,10.72,2.41Zm24,11.44-16.6,9.58a1.14,1.14,0,0,1,.16.47l16.68-9.63A1.1,1.1,0,0,1,34.67,13.85ZM17.09,29.75a1,1,0,0,1-.24-.05v6.39a2,2,0,0,1,.24-.05,1.69,1.69,0,0,1,.24.05V29.7A.93.93,0,0,1,17.09,29.75ZM14.32,1.41,34.67,13.15a1.18,1.18,0,0,1,.24-.42L14.55,1A1.16,1.16,0,0,1,14.32,1.41ZM35.76,14.66a.93.93,0,0,1-.24-.05V16.7a.74.74,0,0,1,.48,0V14.61A.93.93,0,0,1,35.76,14.66Z"/></g></g></g></svg>